<svg width="28" height="28" viewBox="0 0 28 28" fill="none" xmlns="http://www.w3.org/2000/svg">
<path d="M23.545 10.3691C23.545 5.34514 19.2714 1.27246 13.9996 1.27246C8.72775 1.27246 4.4541 5.34514 4.4541 10.3691V10.917C4.4541 12.9271 5.11317 14.887 6.33919 16.5227L13.9807 26.7178C13.9899 26.7301 14.0092 26.7301 14.0184 26.7178L21.6599 16.5227C22.8859 14.887 23.545 12.9271 23.545 10.917V10.3691Z" fill="#0266C1"/>
<path d="M12.3034 7.33609C13.3753 6.84767 14.6238 6.84767 15.6957 7.33609C16.7675 7.82451 17.546 8.74819 17.8107 9.84566C18.0754 10.9431 17.7976 12.0949 17.0559 12.9751C16.3141 13.8552 15.1892 14.3678 13.9996 14.3678C12.8099 14.3678 11.685 13.8552 10.9432 12.9751C10.2015 12.0949 9.92368 10.9431 10.1884 9.84566C10.4531 8.74819 11.2316 7.82451 12.3034 7.33609Z" fill="white"/>
</svg>
